<svg id="Camada_1" xmlns="http://www.w3.org/2000/svg" viewBox="0 0 146.3 130.1"><style>.st0{fill:rgba(235, 83, 62, 0.5);} .st1{fill:#eb533e;}</style><path class="st0" d="M144.8 111.4c-.1-.1-.1-.3-.2-.4L84.2 6.4c-2.3-4-6.4-6.4-11-6.4s-8.7 2.4-11.1 6.4L1.7 111c-.1.1-.1.3-.2.4-1.4 2.6-1.8 5.4-1.3 8.1.3 1.5.8 2.9 1.5 4.2 2.3 4 6.4 6.4 11 6.4h120.8c4.6 0 8.7-2.4 11.1-6.4.8-1.4 1.3-2.8 1.5-4.3.5-2.6.1-5.5-1.3-8z"/><path class="st1" d="M144.8 111.4c-.1-.1-.1-.3-.2-.4L84.2 6.4c-2.3-4-6.4-6.4-11-6.4s-8.7 2.4-11 6.4L1.7 111c-.1.1-.1.3-.2.4-1.4 2.6-1.8 5.4-1.3 8.1.2 1.5.8 2.9 1.5 4.2 2.3 4 6.4 6.4 11 6.4h120.8c4.6 0 8.7-2.4 11.1-6.4.8-1.3 1.3-2.8 1.5-4.2.5-2.7.1-5.6-1.3-8.1zM18.5 93.3c.8-.4 1.6-.8 2.2-1.4 1.4 1.3 3.2 2 5.3 2 2 0 3.8-.8 5.2-2 1.4 1.3 3.2 2 5.3 2 2 0 3.8-.8 5.2-2 1.4 1.3 3.2 2 5.3 2 2 0 3.8-.8 5.2-2 1.4 1.3 3.2 2 5.3 2s3.8-.8 5.2-2c1.4 1.3 3.2 2 5.3 2 2 0 3.8-.8 5.3-2 1.4 1.3 3.2 2 5.2 2s3.8-.8 5.3-2c1.4 1.3 3.2 2 5.2 2s3.8-.8 5.3-2c1.4 1.3 3.2 2 5.2 2s3.9-.8 5.3-2c1.4 1.3 3.2 2 5.2 2s3.9-.8 5.3-2c1.4 1.3 3.2 2 5.3 2 2 0 3.8-.8 5.2-2 .6.6 1.4 1.1 2.2 1.4l4.8 8.3c-.5.4-1.1.7-1.8.7-1.4 0-2.6-1.2-2.6-2.6 0-1.4-1.2-2.6-2.6-2.6s-2.6 1.2-2.6 2.6c0 1.5-1.2 2.6-2.6 2.6-1.4 0-2.6-1.2-2.6-2.6 0-1.4-1.2-2.6-2.6-2.6s-2.6 1.2-2.6 2.6c0 1.5-1.2 2.6-2.6 2.6-1.4 0-2.6-1.2-2.6-2.6 0-1.4-1.2-2.6-2.6-2.6s-2.6 1.2-2.6 2.6c0 1.5-1.2 2.6-2.6 2.6-1.4 0-2.6-1.2-2.6-2.6 0-1.4-1.2-2.6-2.6-2.6S92 98.3 92 99.7c0 1.5-1.2 2.6-2.6 2.6-1.4 0-2.6-1.2-2.6-2.6 0-1.4-1.2-2.6-2.6-2.6-1.5 0-2.6 1.2-2.6 2.6 0 1.5-1.2 2.6-2.6 2.6-1.4 0-2.6-1.2-2.6-2.6 0-1.4-1.2-2.6-2.6-2.6-1.5 0-2.6 1.2-2.6 2.6 0 1.5-1.2 2.6-2.6 2.6-1.5 0-2.6-1.2-2.6-2.6 0-1.4-1.2-2.6-2.6-2.6-1.4 0-2.6 1.2-2.6 2.6 0 1.5-1.2 2.6-2.6 2.6-1.5 0-2.6-1.2-2.6-2.6 0-1.4-1.2-2.6-2.6-2.6-1.5 0-2.6 1.2-2.6 2.6 0 1.5-1.2 2.6-2.6 2.6-1.5 0-2.6-1.2-2.6-2.6 0-1.4-1.2-2.6-2.6-2.6-1.5 0-2.6 1.2-2.6 2.6 0 1.5-1.2 2.6-2.6 2.6-1.5 0-2.6-1.2-2.6-2.6 0-1.4-1.2-2.6-2.6-2.6-1.5 0-2.6 1.2-2.6 2.6 0 1.5-1.2 2.6-2.6 2.6-1.4 0-2.6-1.2-2.6-2.6 0-1.4-1.2-2.6-2.6-2.6-1.4 0-2.6 1.2-2.6 2.6 0 1.5-1.2 2.6-2.6 2.6-.7 0-1.3-.3-1.8-.7l3.7-8.3zm28.4-17.1c-1.4 0-2.6-1.2-2.6-2.6V63.1c0-1.4 1.2-2.6 2.6-2.6s2.6 1.2 2.6 2.6v10.5c.1 1.5-1.1 2.6-2.6 2.6zM102 86c0 1.4-1.2 2.6-2.6 2.6-1.4 0-2.6-1.2-2.6-2.6 0-1.5-1.2-2.6-2.6-2.6-1.5 0-2.6 1.2-2.6 2.6 0 1.4-1.2 2.6-2.6 2.6-1.4 0-2.6-1.2-2.6-2.6v-4.6H102V86zm-17.2-9.8L79.5 71h13.6l5.2 5.2H84.8zM81 79.9V86c0 1.4-1.2 2.6-2.6 2.6-1.4 0-2.6-1.2-2.6-2.6v-1.9c0-1.4-1.2-2.6-2.6-2.6-1.4 0-2.6 1.2-2.6 2.6v2c0 1.4-1.2 2.6-2.6 2.6-1.4 0-2.6-1.2-2.6-2.6V80l7.9-7.9 7.7 7.8zM67 9.2c1.3-2.2 3.6-3.5 6.1-3.5S78 7 79.3 9.2l43.9 75.9c-.1.3-.2.6-.2.9 0 1.4-1.2 2.6-2.6 2.6-1.5 0-2.6-1.2-2.6-2.6 0-1.5-1.2-2.6-2.6-2.6-1.5 0-2.6 1.2-2.6 2.6 0 1.4-1.2 2.6-2.6 2.6-1.4 0-2.6-1.1-2.6-2.6v-7.2c0-.7-.3-1.4-.8-1.9L96 66.5c-.5-.5-1.2-.8-1.9-.8h-21c-.7 0-1.3.3-1.9.8L60.8 77c-.5.5-.8 1.2-.8 1.9V86c0 1.4-1.2 2.6-2.6 2.6-1.5 0-2.6-1.2-2.6-2.6 0-1.5-1.2-2.6-2.6-2.6-1.4 0-2.6 1.2-2.6 2.6v-5c3.1-1.1 5.2-4 5.2-7.4V63.1c0-4.3-3.5-7.9-7.9-7.9-4.3 0-7.9 3.5-7.9 7.9v10.5c0 3.4 2.2 6.3 5.2 7.4v5c0-1.4-1.2-2.6-2.6-2.6-1.5 0-2.6 1.2-2.6 2.6 0 1.4-1.2 2.6-2.6 2.6-1.5 0-2.6-1.2-2.6-2.6 0-1.5-1.2-2.6-2.6-2.6s-2.6 1.2-2.6 2.6c0 1.4-1.2 2.6-2.6 2.6-1.5 0-2.6-1.2-2.6-2.6 0-.3-.1-.6-.2-.8L67 9.2zM6.6 113.8l4.4-7.7c1.3.9 2.8 1.4 4.4 1.4 2 0 3.9-.8 5.3-2 1.4 1.3 3.2 2 5.3 2 2 0 3.8-.8 5.2-2 1.4 1.3 3.2 2 5.3 2 2 0 3.8-.8 5.2-2 1.4 1.3 3.2 2 5.3 2 2 0 3.8-.8 5.2-2 1.4 1.3 3.2 2 5.3 2s3.8-.8 5.2-2c1.4 1.3 3.2 2 5.3 2s3.8-.8 5.3-2c1.4 1.3 3.2 2 5.2 2s3.8-.8 5.3-2c1.4 1.3 3.2 2 5.2 2s3.8-.8 5.3-2c1.4 1.3 3.2 2 5.2 2s3.9-.8 5.3-2c1.4 1.3 3.2 2 5.2 2s3.9-.8 5.3-2c1.4 1.3 3.2 2 5.3 2 2 0 3.8-.8 5.2-2 1.4 1.3 3.2 2 5.3 2 1.6 0 3.1-.5 4.4-1.4l4.4 7.7c.3.6.6 1.3.8 1.9-.3-.1-.5-.2-.8-.4l-.3-.3-.1-.1c-.1-.1-.1-.2-.2-.3 0 0 0-.1-.1-.1 0-.1-.1-.2-.1-.3 0-.1 0-.1-.1-.2v-.1c0-.2-.1-.4-.1-.5 0-1.1-.7-2-1.6-2.4-.3-.1-.7-.2-1-.2-1.5 0-2.6 1.2-2.6 2.6 0 1.1-.7 2-1.6 2.4-.3.1-.7.2-1 .2-1.4 0-2.6-1.2-2.6-2.6 0-1.1-.7-2-1.6-2.4-.3-.1-.7-.2-1-.2-1.5 0-2.6 1.2-2.6 2.6 0 1.1-.7 2-1.6 2.4-.3.1-.7.2-1 .2-1.4 0-2.6-1.2-2.6-2.6 0-1.1-.7-2-1.6-2.4-.3-.1-.7-.2-1-.2-1.5 0-2.6 1.2-2.6 2.6 0 1.1-.7 2-1.6 2.4-.3.1-.7.2-1 .2-1.4 0-2.6-1.2-2.6-2.6 0-1.1-.7-2-1.6-2.4-.3-.1-.7-.2-1-.2-1.1 0-2 .7-2.4 1.6-.1.3-.2.7-.2 1v.5c0 .1 0 .1-.1.2 0 .1-.1.2-.1.3 0 .1-.1.1-.1.2-.1.1-.1.2-.2.3-.1.1-.1.2-.2.2l-.2.2c-.5.4-1.1.7-1.8.7-1.4 0-2.6-1.2-2.6-2.6 0-1.5-1.2-2.6-2.6-2.6S92 112 92 113.4c0 1.4-1.2 2.6-2.6 2.6-1.4 0-2.6-1.2-2.6-2.6 0-1.5-1.2-2.6-2.6-2.6-1.5 0-2.6 1.2-2.6 2.6 0 1.4-1.2 2.6-2.6 2.6-1.4 0-2.6-1.2-2.6-2.6 0-1.5-1.2-2.6-2.6-2.6-1.5 0-2.6 1.2-2.6 2.6 0 1.4-1.2 2.6-2.6 2.6-.7 0-1.4-.3-1.8-.7v-.1c-.1-.1-.2-.2-.2-.3v-.1s0-.1-.1-.1c-.1-.1-.1-.2-.2-.3 0-.1-.1-.2-.1-.3v-.1-.1-.4c0-.5-.2-1-.4-1.5-.5-.7-1.3-1.2-2.2-1.2-1.3 0-2.3.9-2.6 2.1 0 .2-.1.3-.1.5 0 .9-.5 1.7-1.2 2.2-.4.3-.9.4-1.5.4s-1.1-.2-1.6-.6c-.1-.1-.2-.1-.3-.2l-.2-.2c-.4-.4-.6-1-.6-1.6 0-1.5-1.2-2.6-2.6-2.6-1.3 0-2.3.9-2.6 2.1 0 .2-.1.3-.1.5 0 .9-.5 1.7-1.2 2.2-.4.3-.9.4-1.5.4s-1.1-.2-1.5-.5l-.3-.3c-.7-.1-.7-.2-.7-.2-.4-.5-.6-1-.6-1.7 0-1.2-.8-2.2-2-2.5-.2-.1-.4-.1-.7-.1-1.3 0-2.3.9-2.6 2.1 0 .2-.1.3-.1.5 0 .9-.5 1.7-1.2 2.2-.4.3-.9.4-1.5.4-.9 0-1.7-.5-2.2-1.2-.3-.4-.4-.9-.4-1.5 0-.5-.2-1-.4-1.5-.5-.7-1.3-1.2-2.2-1.2-1.3 0-2.3.9-2.6 2.1 0 .2-.1.3-.1.5 0 1.4-1.2 2.6-2.6 2.6-.9 0-1.7-.5-2.2-1.2-.3-.4-.4-.9-.4-1.5 0-.7-.3-1.4-.8-1.9s-1.1-.8-1.9-.8c-1.3 0-2.3.9-2.6 2.1 0 .2-.1.3-.1.5 0 .9-.5 1.7-1.2 2.2-.4.3-.9.4-1.5.4-1.4 0-2.6-1.2-2.6-2.6 0-.2 0-.4-.1-.5-.2-1.2-1.3-2.1-2.6-2.1-.2 0-.4 0-.5.1-.6.1-1.1.5-1.5.9-.2.2-.3.4-.4.6-.1.3-.2.6-.2 1v.5c0 .1 0 .1-.1.2 0 .1 0 .1-.1.1-.1.2-.1.3-.2.5 0 0 0 .1-.1.1-.1.1-.2.2-.2.3l-.2.2c-.2.2-.5.3-.8.4.5-.1.8-.8 1.1-1.4zm127 10.7H12.8c-2.5 0-4.8-1.3-6.1-3.5.8-.2 1.5-.5 2.2-.9.2-.1.5-.3.7-.4.1-.1.2-.1.3-.2l.3-.3c1.4 1.3 3.2 2 5.2 2h.7c1-.1 1.9-.4 2.8-.8.6-.3 1.2-.7 1.7-1.2.5.5 1.1.9 1.7 1.2.8.4 1.8.7 2.8.8h.7c2 0 3.8-.8 5.2-2 1.4 1.3 3.2 2 5.2 2s3.8-.8 5.2-2c1.4 1.3 3.2 2 5.2 2s3.8-.8 5.2-2c1.4 1.3 3.2 2 5.2 2s3.8-.8 5.2-2l.3.3.1.1c1.3 1 3 1.6 4.8 1.6 2 0 3.8-.8 5.3-2 1.4 1.3 3.2 2 5.2 2s3.8-.8 5.3-2c1.4 1.3 3.2 2 5.2 2s3.8-.8 5.3-2c1.4 1.3 3.2 2 5.2 2 1.6 0 3-.5 4.2-1.2.1-.1.2-.2.3-.2h.1s.1 0 .1-.1c.1 0 .1-.1.2-.1l.3-.3c1.4 1.3 3.2 2 5.2 2 .8 0 1.5-.1 2.2-.3.5-.1.9-.3 1.3-.5l.6-.3c.4-.2.8-.5 1.1-.8 1.4 1.3 3.2 2 5.3 2 1 0 2-.2 2.9-.5.7-.3 1.3-.6 1.8-1 .2-.1.4-.3.5-.4.2.2.4.3.5.4.9.7 2 1.2 3.2 1.4.5.1 1 .1 1.5.1 1 0 2-.2 2.9-.5.7-.3 1.3-.6 1.8-1 .2-.1.4-.3.5-.4l.3.3c.1.1.2.1.3.2l.1.1c.1.1.2.1.3.2.1.1.2.1.3.2.7.4 1.4.7 2.2.9-.5 1.8-2.8 3.1-5.3 3.1z"/></svg>