<svg id="Camada_1" xmlns="http://www.w3.org/2000/svg" viewBox="0 0 146.3 130.1"><style>.st0{fill:rgba(250, 234, 89, 0.5);} .st1{fill:#faea59;}</style><path class="st0" d="M144.8 111.4c-.1-.1-.1-.3-.2-.4L84.2 6.4c-2.3-4-6.4-6.4-11-6.4s-8.7 2.4-11.1 6.4L1.7 111c-.1.1-.1.3-.2.4-1.4 2.6-1.8 5.4-1.3 8.1.3 1.5.8 2.9 1.5 4.2 2.3 4 6.4 6.4 11 6.4h120.8c4.6 0 8.7-2.4 11.1-6.4.8-1.4 1.3-2.8 1.5-4.3.5-2.6.1-5.5-1.3-8z"/><path class="st1" d="M144.6 111L84.2 6.4c-2.3-4-6.4-6.4-11-6.4s-8.7 2.4-11.1 6.4L1.7 111c-.1.1-.1.3-.2.4-1.4 2.6-1.8 5.4-1.3 8.1.3 1.5.8 2.9 1.5 4.2 2.3 4 6.4 6.4 11 6.4h120.8c4.6 0 8.7-2.4 11.1-6.4.8-1.4 1.3-2.8 1.5-4.3.5-2.7 0-5.6-1.3-8.1 0 0-.1-.2-.2-.3zM67 9.2c1.3-2.2 3.6-3.5 6.1-3.5 2.6 0 4.8 1.3 6.1 3.5l53.3 92.4c-.5.4-1.1.7-1.8.7-1.4 0-2.6-1.2-2.6-2.6 0-1.4-1.2-2.6-2.6-2.6-1.4 0-2.6 1.2-2.6 2.6 0 1.5-1.2 2.6-2.6 2.6-1.4 0-2.6-1.2-2.6-2.6 0-1.4-1.2-2.6-2.6-2.6-1.4 0-2.6 1.2-2.6 2.6 0 1.5-1.2 2.6-2.6 2.6-1.4 0-2.6-1.2-2.6-2.6 0-1.4-1.2-2.6-2.6-2.6-1.4 0-2.6 1.2-2.6 2.6 0 1.5-1.2 2.6-2.6 2.6-1.4 0-2.6-1.2-2.6-2.6 0-1.4-1.2-2.6-2.6-2.6s-2.6 1.2-2.6 2.6c0 1.5-1.2 2.6-2.6 2.6-1.4 0-2.6-1.2-2.6-2.6 0-1.4-1.2-2.6-2.6-2.6-1.5 0-2.6 1.2-2.6 2.6 0 1.5-1.2 2.6-2.6 2.6-1.4 0-2.6-1.2-2.6-2.6 0-1.4-1.2-2.6-2.6-2.6-1.5 0-2.6 1.2-2.6 2.6 0 1.5-1.2 2.6-2.6 2.6-1.5 0-2.6-1.2-2.6-2.6 0-1.4-1.2-2.6-2.6-2.6-1.4 0-2.6 1.2-2.6 2.6 0 1.5-1.2 2.6-2.6 2.6-1.5 0-2.6-1.2-2.6-2.6 0-1.4-1.2-2.6-2.6-2.6-1.5 0-2.6 1.2-2.6 2.6 0 1.5-1.2 2.6-2.6 2.6-1.5 0-2.6-1.2-2.6-2.6 0-1.4-1.2-2.6-2.6-2.6-1.5 0-2.6 1.2-2.6 2.6 0 1.5-1.2 2.6-2.6 2.6-1.5 0-2.6-1.2-2.6-2.6 0-1.4-1.2-2.6-2.6-2.6-1.5 0-2.6 1.2-2.6 2.6 0 1.5-1.2 2.6-2.6 2.6-1.4 0-2.6-1.2-2.6-2.6 0-1.4-1.2-2.6-2.6-2.6-1.4 0-2.6 1.2-2.6 2.6 0 1.5-1.2 2.6-2.6 2.6-.7 0-1.3-.3-1.8-.7L67 9.2zM6.6 113.8l4.4-7.7c1.3.9 2.8 1.4 4.4 1.4 2 0 3.9-.8 5.3-2 1.4 1.3 3.2 2 5.3 2 2 0 3.8-.8 5.2-2 1.4 1.3 3.2 2 5.3 2 2 0 3.8-.8 5.2-2 1.4 1.3 3.2 2 5.3 2 2 0 3.8-.8 5.2-2 1.4 1.3 3.2 2 5.3 2s3.8-.8 5.2-2c1.4 1.3 3.2 2 5.3 2s3.8-.8 5.3-2c1.4 1.3 3.2 2 5.2 2s3.8-.8 5.3-2c1.4 1.3 3.2 2 5.2 2s3.8-.8 5.3-2c1.4 1.3 3.2 2 5.2 2s3.9-.8 5.3-2c1.4 1.3 3.2 2 5.2 2s3.9-.8 5.3-2c1.4 1.3 3.2 2 5.3 2 2 0 3.8-.8 5.2-2 1.4 1.3 3.2 2 5.3 2 1.6 0 3.1-.5 4.4-1.4l4.4 7.7c.3.6.6 1.3.8 1.9-.3-.1-.5-.2-.8-.4-.2-.1-.3-.3-.4-.4-.1-.1-.1-.2-.2-.3-.1-.1-.1-.2-.1-.3 0-.1-.1-.2-.1-.3v-.1c0-.2-.1-.4-.1-.6 0-1.3-.9-2.3-2.1-2.6-.2 0-.3-.1-.5-.1-.4 0-.7.1-1 .2-.9.4-1.6 1.3-1.6 2.4 0 1.4-1.2 2.6-2.6 2.6-.4 0-.7-.1-1-.2-.9-.4-1.6-1.3-1.6-2.4 0-1.3-.9-2.3-2.1-2.6-.2 0-.3-.1-.5-.1-.4 0-.7.1-1 .2-.9.4-1.6 1.3-1.6 2.4 0 .4-.1.7-.2 1-.4.9-1.3 1.6-2.4 1.6-1.1 0-2.1-.7-2.5-1.8-.1-.3-.2-.6-.2-.9 0-1.3-.9-2.3-2.1-2.6-.2 0-.3-.1-.5-.1-1.4 0-2.6 1.2-2.6 2.6v.5c0 .1-.1.2-.1.3 0 .1 0 .1-.1.2 0 .1-.1.2-.1.2 0 .1-.1.2-.1.2-.1.1-.1.2-.2.2l-.2.2c-.5.4-1.1.7-1.8.7-1.4 0-2.6-1.2-2.6-2.6 0-1.5-1.2-2.6-2.6-2.6-1.4 0-2.6 1.2-2.6 2.6 0 1.4-1.2 2.6-2.6 2.6-1.4 0-2.6-1.2-2.6-2.6 0-1.5-1.2-2.6-2.6-2.6s-2.6 1.2-2.6 2.6c0 1.4-1.2 2.6-2.6 2.6-1.4 0-2.6-1.2-2.6-2.6 0-1.5-1.2-2.6-2.6-2.6-1.5 0-2.6 1.2-2.6 2.6 0 1.4-1.2 2.6-2.6 2.6-1.4 0-2.6-1.2-2.6-2.6 0-1.5-1.2-2.6-2.6-2.6-1.5 0-2.6 1.2-2.6 2.6 0 1.4-1.2 2.6-2.6 2.6-1.5 0-2.6-1.2-2.6-2.6 0-1.5-1.2-2.6-2.6-2.6-1.4 0-2.6 1.2-2.6 2.6 0 1.4-1.2 2.6-2.6 2.6-1.5 0-2.6-1.2-2.6-2.6 0-1.5-1.2-2.6-2.6-2.6-1.5 0-2.6 1.2-2.6 2.6 0 1.4-1.2 2.6-2.6 2.6-1.5 0-2.6-1.2-2.6-2.6 0-1.5-1.2-2.6-2.6-2.6-1.5 0-2.6 1.2-2.6 2.6 0 1.4-1.2 2.6-2.6 2.6-1.5 0-2.6-1.2-2.6-2.6 0-1.5-1.2-2.6-2.6-2.6-1.5 0-2.6 1.2-2.6 2.6 0 1.4-1.2 2.6-2.6 2.6-.7 0-1.3-.3-1.7-.7-.1-.1-.2-.2-.2-.3 0-.1-.1-.1-.1-.2l-.1-.1c-.1-.2-.2-.3-.2-.5-.1-.3-.1-.6-.1-.8 0-.4-.1-.7-.2-1-.1-.2-.1-.3-.2-.4 0-.1-.1-.1-.1-.2l-.1-.1c-.5-.5-1.1-.8-1.8-.8h-.1c-.7 0-1.4.3-1.9.8s-.8 1.1-.8 1.9c0 .2 0 .4-.1.5-.2 1.2-1.3 2.1-2.6 2.1s-2.3-.9-2.6-2.1c0-.2-.1-.3-.1-.5 0-.5-.2-1-.4-1.5-.5-.7-1.3-1.2-2.2-1.2-1.3 0-2.3.9-2.6 2.1 0 .2-.1.3-.1.5s0 .4-.1.5c0 .1 0 .1-.1.2 0 .1-.1.2-.1.3 0 .1-.1.2-.1.2 0 .1-.1.2-.2.2v.1c-.1.1-.2.3-.4.4-.2.2-.5.3-.8.4-1-.1-.7-.8-.4-1.4zm127 10.7H12.8c-2.5 0-4.8-1.3-6.1-3.5.8-.2 1.6-.5 2.2-.9.1-.1.2-.1.3-.2.1-.1.2-.2.3-.2.1-.1.2-.1.3-.2l.3-.3c1.4 1.3 3.2 2 5.2 2s3.8-.8 5.2-2l.3.3s.1 0 .1.1c1.3 1 3 1.6 4.8 1.6 2 0 3.8-.8 5.2-2 1.4 1.3 3.2 2 5.3 2 2 0 3.8-.8 5.2-2 1.4 1.3 3.2 2 5.3 2 2 0 3.8-.8 5.2-2 1.4 1.3 3.2 2 5.3 2s3.8-.8 5.2-2c1.4 1.3 3.2 2 5.3 2s3.8-.8 5.3-2c1.4 1.3 3.2 2 5.2 2s3.8-.8 5.3-2c1.4 1.3 3.2 2 5.2 2s3.8-.8 5.3-2c1.4 1.3 3.2 2 5.2 2s3.9-.8 5.3-2c1.4 1.3 3.2 2 5.2 2 1.6 0 3-.5 4.2-1.2.1-.1.2-.2.4-.2h.1s.1 0 .1-.1c.1 0 .1-.1.2-.1l.3-.3c.2.2.4.3.5.4 1.3 1 2.9 1.6 4.7 1.6 1.8 0 3.4-.6 4.7-1.6.2-.1.4-.3.5-.4 1.4 1.3 3.2 2 5.3 2 .5 0 1 0 1.5-.1 1.4-.3 2.7-.9 3.8-1.9l.3.3c.1.1.2.1.2.2l.1.1c.1.1.2.1.3.2.8.5 1.7.9 2.6 1.1-1.1 2-3.4 3.3-5.9 3.3z"/><path class="st1" d="M62.7 88.8c1.4 0 2.6-1.2 2.6-2.6v-6.3l7.9-7.9 7.9 7.9v6.3c0 1.4 1.2 2.6 2.6 2.6 1.4 0 2.6-1.2 2.6-2.6v-4.7H102v4.7c0 1.4 1.2 2.6 2.6 2.6 1.4 0 2.6-1.2 2.6-2.6v-7.3c0-.7-.3-1.4-.8-1.9L96 66.5c-.5-.5-1.2-.8-1.9-.8h-21c-.7 0-1.3.3-1.9.8L60.8 77c-.5.5-.8 1.2-.8 1.9v7.3c.1 1.5 1.2 2.6 2.7 2.6zM93.1 71l5.2 5.2H84.8L79.5 71h13.6z"/><path class="st1" d="M73.2 81.5c-1.4 0-2.6 1.2-2.6 2.6v2.1c0 1.4 1.2 2.6 2.6 2.6 1.4 0 2.6-1.2 2.6-2.6v-2.1c0-1.4-1.2-2.6-2.6-2.6zM44.3 81v5.2c0 1.4 1.2 2.6 2.6 2.6 1.4 0 2.6-1.2 2.6-2.6V81c3.1-1.1 5.2-4 5.2-7.4V63.1c0-4.3-3.5-7.9-7.9-7.9-4.3 0-7.9 3.5-7.9 7.9v10.5c.2 3.4 2.4 6.3 5.4 7.4zm0-17.9c0-1.4 1.2-2.6 2.6-2.6 1.4 0 2.6 1.2 2.6 2.6v10.5c0 1.4-1.2 2.6-2.6 2.6-1.4 0-2.6-1.2-2.6-2.6V63.1z"/></svg>