<svg id="Camada_1" xmlns="http://www.w3.org/2000/svg" viewBox="0 0 140.1 140"><style>.st0{fill:#FFFFFF;} .st1{fill:#009BDB;}</style><path class="st0" d="M70 0C31.4 0 0 31.4 0 70c0 21.6 9.9 41 25.4 53.9 3.1 2.6 6.4 4.9 9.9 6.9 10.2 5.9 22.1 9.2 34.7 9.2 12.6 0 24.5-3.4 34.7-9.2.2.1.4.1.5.1-.2 0-.4-.1-.5-.1 3.5-2 6.8-4.3 9.9-6.9 15.5-12.8 25.3-32.2 25.3-53.9.2-38.6-31.3-70-69.9-70z"/><path class="st1" d="M70 0C31.4 0 0 31.4 0 70c0 21.6 9.9 41 25.4 53.9 3.1 2.6 6.4 4.9 9.9 6.9 10.2 5.9 22.1 9.2 34.7 9.2 12.6 0 24.5-3.4 34.7-9.2.2.1.4.1.5.1-.2 0-.4-.1-.5-.1 3.5-2 6.8-4.3 9.9-6.9 15.5-12.8 25.3-32.2 25.3-53.9.2-38.6-31.3-70-69.9-70zm0 134.4c-8 0-15.6-1.5-22.7-4.1.6-.3 1.2-.7 1.7-1.2 1.4 1.3 3.2 2 5.3 2s3.9-.8 5.2-2c1.4 1.3 3.2 2 5.3 2s3.9-.8 5.3-2c1.4 1.3 3.2 2 5.2 2s3.9-.8 5.3-2c1.4 1.3 3.2 2 5.2 2s3.8-.8 5.2-2c.5.5 1.1.9 1.7 1.2-7 2.6-14.7 4.1-22.7 4.1zm34.4-10c-.2-.4-.3-.8-.3-1.2 0-1.4-1.1-2.5-2.4-2.6h-.5c-1.3.1-2.4 1.2-2.4 2.6 0 1.4-1 2.5-2.4 2.6h-.5c-1.3-.1-2.3-1.3-2.3-2.6 0-1.4-1.1-2.5-2.4-2.6h-.5c-1.3.1-2.4 1.2-2.4 2.6 0 .8-.4 1.5-1 2-.5.4-1 .6-1.6.6-1.4 0-2.6-1.2-2.6-2.6 0-1.5-1.2-2.6-2.6-2.6s-2.6 1.2-2.6 2.6c0 1.4-1.2 2.6-2.6 2.6-1.4 0-2.6-1.2-2.6-2.6 0-1.5-1.2-2.6-2.6-2.6-1.4 0-2.6 1.2-2.6 2.6 0 1.4-1.2 2.6-2.6 2.6s-2.6-1.2-2.6-2.6c0-1.5-1.2-2.6-2.6-2.6-1.4 0-2.6 1.2-2.6 2.6 0 1.4-1.2 2.6-2.6 2.6-1.4 0-2.6-1.2-2.6-2.6 0-1.5-1.2-2.6-2.6-2.6s-2.6 1.2-2.6 2.6c0 1.4-1.2 2.6-2.6 2.6-1.4 0-2.6-1.2-2.6-2.6 0-1.5-1.2-2.6-2.6-2.6s-2.6 1.2-2.6 2.6c0 .4-.1.8-.3 1.2C18 113 6 92.9 6 70 5.7 34.5 34.5 5.7 70 5.7s64.4 28.9 64.4 64.4c0 22.8-12 42.9-30 54.3z"/><path class="st1" d="M92.9 76.4c-.5-.5-1.2-.8-1.9-.8H70c-.7 0-1.3.3-1.9.8L57.7 86.9c-.5.5-.8 1.2-.8 1.9v18.9c0 1.4 1.2 2.6 2.6 2.6h42c1.4 0 2.6-1.2 2.6-2.6V88.8c0-.7-.3-1.4-.8-1.9L92.9 76.4zm-3 4.5l5.2 5.2H81.6l-5.2-5.2h13.5zm-27.7 9L70 82l7.9 7.9v15.3H62.2V89.9zm36.7 15.2H83.1V91.4h15.7v13.7z"/><path class="st1" d="M70 98.7c1.4 0 2.6-1.2 2.6-2.6V94c0-1.4-1.2-2.6-2.6-2.6-1.4 0-2.6 1.2-2.6 2.6v2.1c0 1.5 1.2 2.6 2.6 2.6zM43.8 65.2c-4.3 0-7.9 3.5-7.9 7.9v10.5c0 3.4 2.2 6.3 5.2 7.4v16.8c0 1.4 1.2 2.6 2.6 2.6 1.4 0 2.6-1.2 2.6-2.6V90.9c3.1-1.1 5.2-4 5.2-7.4V73c.2-4.3-3.4-7.8-7.7-7.8zm2.6 18.3c0 1.4-1.2 2.6-2.6 2.6s-2.6-1.2-2.6-2.6V73c0-1.4 1.2-2.6 2.6-2.6s2.6 1.2 2.6 2.6v10.5z"/></svg>